<?xml version="1.0" encoding="utf-8"?>
<!-- Generator: Adobe Illustrator 26.0.3, SVG Export Plug-In . SVG Version: 6.00 Build 0)  -->
<svg version="1.0" id="katman_1" xmlns="http://www.w3.org/2000/svg" xmlns:xlink="http://www.w3.org/1999/xlink" x="0px" y="0px"
	 viewBox="0 0 94.7 74.5" style="enable-background:new 0 0 94.7 74.5;" xml:space="preserve">
<style type="text/css">
	.st0{clip-path:url(#SVGID_00000142140318543447099100000008057536032430527876_);}
	.st1{fill:#A2AAAD;}
	.st2{fill:#FFFFFF;}
</style>
<g>
	<defs>
		<rect id="SVGID_1_" x="22.2" y="7.5" width="49.8" height="59.5"/>
	</defs>
	<clipPath id="SVGID_00000130648099391829363200000015866283228082384058_">
		<use xlink:href="#SVGID_1_"  style="overflow:visible;"/>
	</clipPath>
	<g style="clip-path:url(#SVGID_00000130648099391829363200000015866283228082384058_);">
		<path d="M22.2,7.5V49l24.9,18L72,49V7.5L22.2,7.5L22.2,7.5z"/>
		<path class="st1" d="M23.4,8.8v39.6l23.7,17.2l23.6-17.2V8.8H23.4z"/>
		<path class="st2" d="M47.1,64l22.5-16.3V9.9h-45v37.8l19.8,14.3L47.1,64z M26,11.2h42.2v25H26V11.2z M26,37.5h42.2v9.3L47.1,62.2
			l0,0L38.6,56L26,46.9L26,37.5L26,37.5z"/>
		<path class="st1" d="M27.3,12.6L27.3,12.6L27.3,12.6l39.6,0v21.7h0v0H27.3L27.3,12.6L27.3,12.6z"/>
		<path d="M27.3,39.9L27.3,39.9l0,6.3l19.8,14.3l0,0l19.8-14.3v-6.3L27.3,39.9z M66.9,34.3V12.6H27.3v21.7H66.9z"/>
		<path class="st2" d="M47.1,64l22.5-16.3V9.9h-45v37.8l19.8,14.3L47.1,64z M26,11.2h42.2v25H26V11.2z M26,37.5h42.2v9.3L47.1,62.2
			l0,0L38.6,56L26,46.9L26,37.5L26,37.5z"/>
		<path d="M66.9,34.3V12.6H27.3v21.7H66.9z M27.3,39.9L27.3,39.9l0,6.3l19.8,14.3l0,0l19.8-14.3v-6.3L27.3,39.9z"/>
		<path class="st1" d="M62.4,18.4H50.7V23h11.7V18.4z M62.1,22.6H51v-3.9h11L62.1,22.6L62.1,22.6z"/>
		<path class="st1" d="M39.8,28.1h-7.6v-4.7c0-4.9,1-7,1.2-7.4c0,0,0-0.1,0-0.1h-4.9c0,0,1.3,2,1.3,7.4c0,5.5-1.3,7.4-1.3,7.4h16.1
			l0,0c0.9-1.4,1.4-3,1.3-4.6C46,26.2,44.1,28.1,39.8,28.1L39.8,28.1z M64.5,23.4c0-0.6,0-1.2,0-1.7c0.2-4.2,1.2-5.7,1.2-5.7H47.4
			c0,0,1.3,2,1.3,7.4c0,4.1-0.7,6.2-1.1,7c-0.1,0.1-0.1,0.3-0.2,0.4H51v-5.5h11v5.5h3.7c0,0-1.1-1.8-1.3-6.6
			C64.5,23.9,64.5,23.7,64.5,23.4L64.5,23.4z M62.1,22.6H51v-3.9h11L62.1,22.6L62.1,22.6z"/>
		<path class="st2" d="M43.2,28c-1.1,0.3-2.2,0.4-3.3,0.4h-8v-5.1c0-1.5,0.1-2.9,0.3-4.4c0.1-0.7,0.3-1.4,0.5-2.1
			c0.1-0.2,0.1-0.4,0.2-0.6h-3.8c0.1,0.2,0.2,0.4,0.2,0.6c0.2,0.7,0.4,1.4,0.5,2.1c0.2,1.5,0.3,2.9,0.3,4.4v0c0,1.5-0.1,2.9-0.3,4.4
			c-0.1,0.8-0.3,1.5-0.5,2.2c-0.1,0.2-0.1,0.3-0.2,0.5h15.4c0.2-0.3,0.4-0.7,0.5-1.1c0.3-0.8,0.5-1.6,0.6-2.5
			c-0.2,0.1-0.4,0.2-0.6,0.3C44.4,27.6,43.8,27.9,43.2,28L43.2,28z M64.2,25.8c-0.1-0.7-0.1-1.5-0.1-2.4c0-0.8,0-1.4,0.1-2.1
			c0.1-1.5,0.3-2.9,0.7-4.3c0.1-0.3,0.2-0.5,0.3-0.7H47.9c0.2,0.6,0.4,1.2,0.5,1.8c0.4,1.7,0.5,3.5,0.5,5.3c0,1.8-0.1,3.6-0.5,5.3
			c-0.1,0.6-0.3,1.2-0.5,1.7h2.8V25h0v0h11.7v5.5h2.8c-0.1-0.2-0.2-0.4-0.3-0.7C64.5,28.5,64.3,27.2,64.2,25.8L64.2,25.8z M62.4,23
			H50.7v-4.6h11.7L62.4,23L62.4,23z"/>
		<path class="st2" d="M54.2,45.1c0,0-1.2,1.6-1.4,1.9l0,0l0,0c-0.2-0.3-0.5-0.5-0.8-0.8c-0.6-0.4-1.2-0.8-1.9-1l0,0
			c0.1-0.2,0.3-0.8,0.5-1.1l0.1-0.3l-0.3,0.1c-0.2,0.1-0.5,0.2-0.7,0.3l0,0l0,0c0-0.1,0.1-0.1,0.1-0.1l-0.6,0c-0.3,0-0.6,0-0.7,0
			c0,0,0-0.1-0.1-0.1c-0.1-0.2-0.3-0.5-0.4-0.7c-0.1-0.2-0.2-0.4-0.3-0.5c0,0,0.1-0.1,0.1-0.2c0.1-0.1,0.2-0.3,0.2-0.3
			c0,0,0.1-0.1,0.2-0.1c0.1-0.1,0.2-0.1,0.2-0.1L48,41.3l-0.4,0l-0.4,0l0,0.1c0,0.1,0,0.3,0,0.3l-0.1,0.1l0,0.1l0,0l0,0l0-0.1l0-0.1
			c0-0.1,0-0.4,0-0.4l-0.3,0l-0.4,0l-0.2,0.3L45.9,42c0,0,0.3,0.2,0.3,0.3c0,0,0.2,0.4,0.3,0.6c-0.1,0.1-0.7,1.2-0.8,1.3
			c-0.1,0-0.4,0-0.8,0c-0.3,0-0.5,0-0.5,0s0,0,0,0.1c0,0,0,0,0,0l0,0c-0.1,0-0.2-0.1-0.3-0.1c-0.3-0.1-0.7-0.3-0.7-0.3
			c0,0,0.1,0.3,0.2,0.6c0.1,0.3,0.3,0.6,0.3,0.8l0,0l0,0c-0.9,0.3-1.8,0.8-2.5,1.5c0,0,0,0,0,0c0,0,0,0,0,0
			c-0.1,0.1-0.1,0.1-0.2,0.2l-0.1-0.1c-0.3-0.4-1.4-1.8-1.4-1.8l-0.3,0.1l1.5,8.4c0,0,2.1,0.5,5.9,0.5c3.9,0,5.9-0.5,5.9-0.5
			l1.5-8.4l-0.2-0.1L54.2,45.1L54.2,45.1z"/>
		<path d="M44.6,48.1c-0.1,0-0.2,0-0.3,0.1c-0.1,0.1-0.1,0.2-0.1,0.3v0c0,0.1,0,0.1,0,0.2s0.1,0.1,0.1,0.2c0,0,0.1,0.1,0.2,0.1
			c0.1,0,0.1,0,0.2,0c0.1,0,0.1,0,0.2,0c0.1,0,0.1-0.1,0.2-0.1c0,0,0.1-0.1,0.1-0.2s0-0.1,0-0.2v0c0-0.1,0-0.1,0-0.2
			c0-0.1-0.1-0.1-0.1-0.2c0,0-0.1-0.1-0.2-0.1C44.7,48.1,44.6,48.1,44.6,48.1L44.6,48.1z M49.6,48.1c-0.1,0-0.2,0-0.3,0.1
			c-0.1,0.1-0.1,0.2-0.1,0.3v0c0,0.1,0,0.2,0.1,0.3c0.1,0.1,0.2,0.1,0.3,0.1c0.1,0,0.2,0,0.3-0.1c0.1-0.1,0.1-0.2,0.1-0.3v0
			c0-0.1,0-0.2-0.1-0.3S49.7,48.1,49.6,48.1z"/>
		<path d="M52.8,47.5L52.8,47.5L52.8,47.5c-0.1-0.1-0.2-0.2-0.2-0.3c-0.1-0.1-0.2-0.2-0.3-0.3l0,0c-0.1-0.1-0.2-0.2-0.3-0.3l0,0
			c-0.1-0.1-0.2-0.2-0.4-0.3c0,0,0,0,0,0c-0.1-0.1-0.3-0.2-0.4-0.3c-0.1-0.1-0.3-0.2-0.5-0.2c-0.2-0.1-0.3-0.1-0.5-0.2
			c-0.2-0.1-0.3-0.1-0.5-0.2c0,0,0,0,0,0l0,0l0.2-0.6l0.1-0.4l0,0l-2,0.9v-0.5l-0.9-1.6l0,0l-0.9,1.6v0.5l0,0l-2-0.9l0.2,0.5
			l0.2,0.5c-1,0.3-1.9,0.8-2.6,1.4c-0.2,0.2-0.4,0.4-0.5,0.7l-1.3-1.8l0,0l0.4,2.6l0.8,4.9c0,0,1.7,0.4,4.5,0.5l0,0
			c0,0-1.9-0.2-3-0.6l0,0c0.1,0,0.3,0,0.4,0.1c0.4,0,0.8,0.1,1.3,0.1c0.5,0,1,0.1,1.5,0.1l0,0c-0.5-0.1-1.1-0.2-1.6-0.3
			c-0.3-0.1-0.6-0.2-1-0.3l0,0c0.3,0,0.6,0.1,0.9,0.1c0.7,0.1,1.3,0.1,2,0.1h0c-0.9-0.1-1.7-0.3-2.5-0.5l0,0
			c0.3-0.1,0.6-0.1,0.9-0.2c1.5-0.2,3-0.3,4.5-0.1c0.5,0.1,0.9,0.1,1.3,0.2l0,0c-0.8,0.3-1.7,0.4-2.5,0.5h0c0.7,0,1.4,0,2-0.1
			c0.3,0,0.6-0.1,0.9-0.1c-0.3,0.1-0.7,0.2-1,0.3c-0.5,0.1-1.1,0.2-1.6,0.3l0,0c0.5,0,1,0,1.5-0.1c0.5,0,1-0.1,1.3-0.1
			c0.1,0,0.2,0,0.3,0l0,0c-1.1,0.4-3,0.6-3,0.6l0,0c2.8-0.1,4.5-0.5,4.5-0.5l1.3-7.5l0,0L52.8,47.5L52.8,47.5z M48.1,48.9v-3.4
			l0.6-0.3l1.1-0.5l0,0l-1.1,2.8L48.1,48.9L48.1,48.9z M49.6,45.7L49.6,45.7c0.9,0.2,1.7,0.7,2.4,1.3c0.3,0.2,0.5,0.5,0.7,0.8l0,0
			l-0.3,0.4l0,0c-0.2-0.4-0.5-0.8-0.9-1.1c-0.1,0-0.1-0.1-0.2-0.1c0,0-0.1-0.1-0.1-0.1c0,0,0,0,0,0c0,0-0.1,0-0.1-0.1c0,0,0,0-0.1,0
			c0,0-0.1,0-0.1-0.1c0,0,0,0-0.1,0c0,0-0.1,0-0.1,0c0,0,0,0,0,0c0,0-0.1,0-0.1,0c0,0,0,0,0,0c0,0-0.1,0-0.1,0c0,0,0,0,0,0
			c0,0-0.1,0-0.1,0c0,0,0,0,0,0c0,0-0.1,0-0.1,0c0,0,0,0,0,0c-0.1,0-0.3-0.1-0.4-0.1l0,0c0.4,0.1,0.7,0.3,1.1,0.5
			c0.5,0.3,0.8,0.7,1.1,1.2c0.1,0.2,0.1,0.3,0.2,0.5l-0.3,0.4c0,0,0,1.2-0.2,1.7c-0.1,0-0.1,0-0.2-0.1c0,0-0.1,0-0.1,0v0
			c0.3-1.1,0.1-1.9-0.1-2.5c0-0.1-0.1-0.1-0.1-0.2c0,0-0.1-0.1-0.1-0.1c0,0,0,0,0-0.1c0,0-0.1-0.1-0.1-0.1c0,0,0,0,0,0
			c0,0-0.1-0.1-0.1-0.1c0,0,0,0,0,0c0,0-0.1-0.1-0.1-0.1c0,0,0,0,0,0c0,0-0.1-0.1-0.1-0.1c0,0,0,0,0,0c0,0-0.1-0.1-0.1-0.1
			c0,0,0,0,0,0c0,0-0.1,0-0.1-0.1c0,0,0,0,0,0c0,0-0.1,0-0.1-0.1l0,0c-0.2-0.1-0.3-0.1-0.5-0.2l0,0c1.8,0.9,1.6,2.6,1.2,3.6l0,0
			c-0.1,0-0.2,0-0.3-0.1c-0.1,0-0.1,0-0.2-0.1L50,49.5l-0.1-0.3c0.1,0,0.2-0.1,0.3-0.2c0.1-0.1,0.1-0.2,0.1-0.3c0-0.1,0-0.2,0-0.3
			c0-0.1-0.1-0.2-0.2-0.2c0,0-0.1-0.1-0.1-0.1C49.9,48,49.8,48,49.7,48c-0.1,0-0.2,0-0.3,0c-0.1,0-0.2,0.1-0.3,0.2
			C49,48.3,49,48.5,49,48.6c0,0.1,0,0.2,0.1,0.3c0.1,0.1,0.1,0.2,0.2,0.2l-0.6,1.1c-0.1,0-0.2,0-0.3,0c-0.1,0-0.2,0-0.3,0
			c-0.1,0-0.2,0-0.3,0L49.6,45.7L49.6,45.7z M49.6,49.1c-0.1,0-0.2,0-0.3-0.1c-0.1,0-0.1-0.1-0.2-0.2c0-0.1-0.1-0.2-0.1-0.3
			c0-0.1,0-0.2,0.1-0.3c0.1-0.1,0.1-0.1,0.2-0.2c0.1,0,0.2-0.1,0.3-0.1c0.1,0,0.2,0,0.3,0.1c0.1,0.1,0.1,0.1,0.2,0.2
			c0,0.1,0,0.1,0,0.2c0,0.1,0,0.1,0,0.2c0,0.1-0.1,0.2-0.2,0.2C49.8,49.1,49.7,49.1,49.6,49.1L49.6,49.1z M47.1,44.5L47.1,44.5
			l0.8,1l-0.8,0.9l0,0l-0.8-0.9L47.1,44.5L47.1,44.5z M44.5,44.8L44.5,44.8l1.5,0.7l0.2,0.1v3.4l-0.1-0.3L44.5,44.8L44.5,44.8z
			 M41.7,47.8c0.2-0.3,0.4-0.6,0.7-0.9c0.7-0.6,1.4-1,2.3-1.2l0,0l1.8,4.4c-0.1,0-0.2,0-0.4,0c-0.2,0-0.4,0-0.6,0l0,0l-0.6-1l0,0
			c0.1,0,0.1-0.1,0.2-0.1c0-0.1,0.1-0.1,0.1-0.2c0-0.1,0-0.2,0-0.2c0-0.1,0-0.1-0.1-0.2c0,0,0,0,0,0c0-0.1-0.1-0.2-0.2-0.2
			C45,48.1,44.8,48,44.7,48c-0.2,0-0.3,0-0.4,0.1c-0.1,0.1-0.2,0.2-0.3,0.4c0,0.1,0,0.3,0,0.4c0.1,0.1,0.2,0.2,0.3,0.3l-0.3,1.3
			c0,0,0,0,0,0c-0.2,0-0.3,0.1-0.5,0.1l0,0c0-0.1,0-0.1-0.1-0.2c-0.2-0.7-0.3-1.5,0-2.2c0.3-0.6,0.7-1,1.3-1.3l0,0
			c-0.1,0-0.2,0.1-0.3,0.1l0,0c0,0-0.1,0-0.1,0.1c0,0,0,0,0,0c0,0-0.1,0-0.1,0.1c0,0,0,0,0,0c0,0-0.1,0-0.1,0.1c0,0,0,0,0,0
			c0,0-0.1,0-0.1,0.1c0,0,0,0,0,0c0,0-0.1,0.1-0.1,0.1c0,0,0,0,0,0c0,0-0.1,0.1-0.1,0.1c0,0,0,0,0,0c0,0-0.1,0.1-0.1,0.1
			c0,0,0,0,0,0c0,0-0.1,0.1-0.1,0.1c0,0,0,0,0,0c0,0-0.1,0.1-0.1,0.1c0,0,0,0,0,0.1c0,0-0.1,0.1-0.1,0.1c0,0.1-0.1,0.1-0.1,0.2
			c-0.2,0.5-0.3,1.3,0,2.2c-0.1,0-0.2,0.1-0.3,0.1c-0.1-0.2-0.1-0.4-0.2-0.6c0-0.4-0.1-0.7,0-1.1l-0.2-0.3l-0.1-0.2c0,0,0,0,0,0
			c0.2-0.7,0.7-1.5,1.7-2c0.2-0.1,0.4-0.2,0.6-0.2l0,0c-0.2,0-0.4,0.1-0.6,0.1c0,0,0,0,0,0c-0.1,0-0.2,0.1-0.4,0.1c0,0,0,0,0,0
			c0,0,0,0,0,0c-0.7,0.3-1.3,0.9-1.6,1.6L41.7,47.8L41.7,47.8L41.7,47.8z M44.9,49c-0.1,0.1-0.2,0.1-0.3,0.1c-0.1,0-0.2,0-0.3-0.1
			c-0.1-0.1-0.2-0.2-0.2-0.3c0-0.1,0-0.3,0.1-0.4c0.1-0.1,0.2-0.2,0.3-0.2c0.1,0,0.2,0,0.4,0c0.1,0,0.2,0.1,0.3,0.2
			c0.1,0.1,0.1,0.2,0.1,0.4C45.1,48.8,45,48.9,44.9,49L44.9,49z M41.1,50.1L41,49.7c0,0,0,0,0,0c0,0,0,0,0,0h0c0,0,0.1,0,0.1,0
			c0,0,0.1,0,0.1,0.1c0,0,0.1,0.1,0.1,0.2c0,0.1,0,0.1-0.1,0.2C41.2,50.1,41.1,50.1,41.1,50.1L41.1,50.1L41.1,50.1z M41.1,50.6
			L41.1,50.6c0.1-0.1,0.2-0.2,0.3-0.3c0.1-0.1,0.1-0.2,0.1-0.4c0-0.1,0-0.3-0.1-0.4c0-0.1-0.1-0.1-0.2-0.2c-0.1,0-0.1-0.1-0.2-0.1h0
			c0,0-0.1,0-0.1,0l0-0.1c0,0,0.1,0,0.1,0h0c0.1,0,0.2,0,0.2,0.1c0.1,0,0.1,0.1,0.2,0.1c0.1,0.1,0.1,0.1,0.1,0.2s0,0.2,0,0.2
			c0,0.2,0,0.3-0.1,0.4C41.4,50.5,41.3,50.5,41.1,50.6L41.1,50.6z M53.2,50l0,0.1h0c-0.1,0-0.1,0-0.1-0.1c0,0-0.1-0.1-0.1-0.2
			c0,0,0-0.1,0-0.1c0,0,0-0.1,0.1-0.1c0,0,0.1,0,0.1,0l0,0c0,0,0,0,0.1,0L53.2,50L53.2,50z M53.3,49.3L53.3,49.3L53.3,49.3
			c-0.1,0.1-0.1,0.1-0.1,0.1c-0.1,0-0.1,0-0.2,0c-0.1,0-0.2,0.1-0.2,0.2c-0.1,0.1-0.1,0.2-0.1,0.3c0,0.1,0,0.3,0.1,0.4
			s0.2,0.2,0.3,0.2l0,0l0,0l0,0c-0.1,0-0.1,0-0.2-0.1c-0.1-0.1-0.2-0.1-0.2-0.2c-0.1-0.1-0.1-0.2-0.1-0.3v0c0-0.1,0-0.2,0-0.2
			c0-0.1,0.1-0.2,0.1-0.2c0.1-0.1,0.1-0.1,0.2-0.1c0.1,0,0.2-0.1,0.2-0.1C53.2,49.3,53.2,49.3,53.3,49.3
			C53.3,49.3,53.3,49.3,53.3,49.3L53.3,49.3L53.3,49.3z M53.8,46.4l-0.5,2.8v0c0,0,0,0,0,0c0,0-0.1,0-0.1,0c-0.2,0-0.4,0.1-0.5,0.2
			c-0.1,0.1-0.2,0.3-0.2,0.5c0,0.2,0.1,0.4,0.2,0.5c0.1,0.1,0.2,0.2,0.3,0.2c0,0,0.1,0,0.1,0l0,0l-0.3,1.6L52.7,53l0,0
			c-0.2-0.1-0.4-0.2-0.8-0.3c-0.5-0.2-1.1-0.3-1.7-0.4c-1-0.2-2.1-0.3-3.1-0.3c-1.6,0-3.3,0.3-4.8,0.8c-0.2,0.1-0.5,0.2-0.7,0.3
			l-0.3-1.8l-0.1-0.6c0.1,0,0.2-0.1,0.3-0.1c0.1-0.1,0.2-0.1,0.2-0.2c0.1-0.1,0.1-0.3,0.1-0.5c0-0.2-0.1-0.3-0.2-0.4
			c-0.1-0.1-0.1-0.1-0.2-0.2c-0.1,0-0.2-0.1-0.3-0.1c0,0-0.1,0-0.1,0c0,0,0,0,0,0l0,0l-0.5-2.8l0,0l2.1,2.8c0,0.4,0,0.7,0.1,1.1
			c0,0.3,0.1,0.5,0.2,0.8c0,0,0.3-0.1,0.7-0.3c0.2-0.1,0.5-0.1,0.7-0.2l0.2-1l0.1-0.4c0,0,0,0,0.1,0c0.1,0,0.1,0,0.2,0
			c0,0,0.1,0,0.1,0l0,0l0.2,0.4l0.4,0.8l0,0c0,0,0.2,0,0.5,0c0.3,0,0.6,0,0.8,0l-0.4-1.2l0.3-0.7l0.5-1.2l0,0l0.7,1.7l0.1,0.1
			l-0.4,1.2h0c0.2,0,0.6,0,0.8,0c0.3,0,0.5,0,0.5,0l0,0l0.7-1.2l0,0c0,0,0,0,0,0c0,0,0.1,0.1,0.2,0.1c0.1,0,0.1,0,0.2,0l0.3,1.3
			c0.2,0,0.5,0.1,0.7,0.2l0,0l0,0c0.5,0.1,0.8,0.3,0.8,0.3l0,0c0,0,0.3-0.4,0.3-1.4c0-0.1,0-0.3,0-0.4l1-1.3L53.8,46.4L53.8,46.4
			L53.8,46.4z"/>
		<path d="M46.1,44.8L46.1,44.8l1-1.7l0,0l0.4,0.6l0.6,1.1h0.8l0.1-0.2h-0.8l-1-1.7l0.5-0.8l0.1-0.1l0,0l0,0l-0.1-0.1h0l-0.1,0
			l-0.1,0v0l0,0l0,0.1l-0.4,0.7l0,0l-0.2-0.4l-0.2-0.4l0-0.1l-0.1,0l-0.1,0h0l0,0l-0.1,0.1l0,0l0,0l0.1,0.1l0.2,0.4l0.3,0.5l-1,1.7
			l0,0h-0.8l0.1,0.2H46.1z M45.9,51C45.9,51,45.9,51,45.9,51L45.9,51C45.9,51,45.9,51,45.9,51c0,0.1,0,0.1,0,0.2
			c0,0.1,0,0.2-0.1,0.2c-0.1,0.1-0.1,0.1-0.2,0.1h0l0,0c0,0,0,0,0,0c0,0,0,0,0,0c0,0,0,0,0,0c0.1,0,0.1,0,0.2-0.1
			c0,0,0.1-0.1,0.1-0.1c0-0.1,0-0.1,0-0.2C46,51.1,46,51,45.9,51L45.9,51z M43.5,51.4L43.5,51.4C43.6,51.4,43.6,51.5,43.5,51.4
			c0,0.1,0,0.1,0.1,0.1c0,0,0,0.1,0,0.1c0,0.1,0,0.2-0.1,0.2c-0.1,0.1-0.1,0.1-0.2,0.1h0c0,0,0,0,0.1,0c0,0,0,0,0.1,0
			c0,0,0.1,0,0.1,0c0,0,0.1,0,0.1-0.1c0,0,0-0.1,0.1-0.1c0,0,0-0.1,0-0.1v0c0-0.1,0-0.1,0-0.1C43.6,51.5,43.6,51.4,43.5,51.4
			L43.5,51.4z M48.7,51C48.7,51,48.7,51,48.7,51c0.1,0.1,0.1,0.1,0.1,0.2l0,0c0,0,0,0.1,0,0.1c0,0,0,0.1-0.1,0.1
			c0,0-0.1,0.1-0.1,0.1c0,0-0.1,0-0.1,0h0l0,0c0,0,0,0,0,0c0,0,0,0,0,0c0,0,0,0,0,0c0,0,0.1,0,0.1,0c0.1,0,0.1-0.1,0.1-0.1
			c0,0,0.1-0.1,0.1-0.2c0-0.1,0-0.1,0-0.2C48.7,51.1,48.7,51,48.7,51L48.7,51z M51,51.4L51,51.4C51,51.4,51.1,51.5,51,51.4
			c0.1,0.1,0.1,0.1,0.1,0.2c0,0.1,0,0.2-0.1,0.2c-0.1,0.1-0.1,0.1-0.2,0.1h0c0,0,0,0,0.1,0c0,0,0,0,0.1,0c0,0,0.1,0,0.1,0
			c0,0,0.1-0.1,0.1-0.1c0,0,0-0.1,0-0.1c0-0.1,0-0.1,0-0.1C51.1,51.5,51.1,51.4,51,51.4L51,51.4z M47.4,48.9L47.4,48.9
			C47.4,48.9,47.4,48.9,47.4,48.9c0,0.1,0.1,0.1,0.1,0.2c0,0.1,0,0.2-0.1,0.2c-0.1,0.1-0.1,0.1-0.2,0.1c0,0,0.1,0,0.1,0
			c0,0,0.1,0,0.1,0c0,0,0,0,0,0c0,0,0.1-0.1,0.1-0.1c0,0,0-0.1,0-0.1c0-0.1,0-0.1,0-0.1C47.4,48.9,47.4,48.9,47.4,48.9L47.4,48.9z
			 M47.1,49.4C47.1,49.4,47.1,49.4,47.1,49.4C47.1,49.4,47.1,49.4,47.1,49.4L47.1,49.4L47.1,49.4z"/>
		<path d="M45.9,51.2c0-0.1,0-0.1-0.1-0.2c0,0-0.1-0.1-0.2-0.1c-0.1,0-0.1,0-0.2,0.1c0,0-0.1,0.1-0.1,0.2c0,0.1,0,0.1,0.1,0.2
			c0,0,0.1,0.1,0.2,0.1c0,0,0,0,0,0c0.1,0,0.1,0,0.2-0.1C45.9,51.3,45.9,51.3,45.9,51.2C45.9,51.2,45.9,51.2,45.9,51.2L45.9,51.2z
			 M43.3,51.9c0,0,0.1,0,0.1,0c0,0,0.1-0.1,0.1-0.1c0,0,0-0.1,0-0.1c0-0.1,0-0.1-0.1-0.2c0,0-0.1-0.1-0.2-0.1c0,0,0,0,0,0l0,0
			c0,0-0.1,0-0.1,0c0,0-0.1,0-0.1,0.1c0,0,0,0.1-0.1,0.1c0,0,0,0.1,0,0.1c0,0.1,0,0.1,0.1,0.2S43.2,51.9,43.3,51.9L43.3,51.9
			L43.3,51.9z M48.5,51.4c0,0,0.1,0,0.1-0.1c0,0,0-0.1,0-0.1c0,0,0-0.1,0-0.1c0,0-0.1-0.1-0.1-0.1c0,0-0.1,0-0.1,0
			c-0.1,0-0.1,0-0.2,0.1c0,0-0.1,0.1-0.1,0.2c0,0,0,0.1,0,0.1c0,0,0.1,0.1,0.1,0.1C48.3,51.4,48.4,51.4,48.5,51.4
			C48.4,51.4,48.5,51.4,48.5,51.4L48.5,51.4z M50.8,51.9c0.1,0,0.1,0,0.2-0.1c0,0,0.1-0.1,0.1-0.2c0-0.1,0-0.1-0.1-0.2
			c0,0-0.1-0.1-0.2-0.1h0l0,0c0,0-0.1,0-0.1,0c0,0-0.1,0-0.1,0.1c0,0,0,0.1-0.1,0.1c0,0,0,0.1,0,0.1c0,0.1,0,0.1,0.1,0.2
			C50.7,51.8,50.7,51.9,50.8,51.9L50.8,51.9L50.8,51.9z M47.2,49.3c0,0,0.1-0.1,0.1-0.1c0,0,0-0.1,0-0.1c0-0.1,0-0.1-0.1-0.2
			c0,0-0.1-0.1-0.2-0.1c-0.1,0-0.1,0-0.2,0.1c0,0-0.1,0.1-0.1,0.2c0,0,0,0.1,0,0.1c0,0,0.1,0.1,0.1,0.1C47,49.3,47.1,49.3,47.2,49.3
			C47.1,49.3,47.2,49.3,47.2,49.3L47.2,49.3z M41.1,48.7L41.1,48.7L41,48.9l-0.1,0.2l0,0l0.1,0l0.2,0h0l0-0.1L41.1,48.7z M41.4,49.1
			L41.4,49.1l0.1,0.1l0.1,0.1l0,0l0.1-0.4l0,0L41.4,49.1z M41.9,49.7l0.3-0.3l0,0l-0.4,0L41.9,49.7L41.9,49.7z M41.9,49.8l0,0.2
			l0,0.1l0.4-0.1l0,0L41.9,49.8z M41.8,50.2L41.8,50.2l-0.2,0.3l0.4,0.1l-0.1-0.2L41.8,50.2z M41.5,50.6l-0.1,0.1l-0.1,0.1l0,0
			l0.2,0.2l0,0L41.5,50.6L41.5,50.6z M53.3,49.1l-0.1-0.3l0-0.1v0l0,0L53,49.1L53.3,49.1L53.3,49.1z M52.5,48.9L52.5,48.9l0.1,0.4
			l0,0l0.1-0.1l0.1-0.1L52.7,49L52.5,48.9z M52.4,49.7L52.4,49.7l0.1-0.2l0,0l-0.4,0L52.4,49.7z M52.4,49.8L52,50l0,0l0.4,0.1
			L52.4,49.8z M52.2,50.6l0.4-0.1l-0.2-0.3L52.2,50.6z M53,50.7L53,50.7l-0.3-0.1v0l0,0.4v0l0.1-0.1L53,50.7z M47.4,45.4
			c0,0,0-0.1,0-0.1c0,0,0-0.1-0.1-0.1c0,0-0.1-0.1-0.1-0.1c0,0-0.1,0-0.1,0h0c0,0-0.1,0-0.1,0c0,0-0.1,0-0.1,0.1
			c0,0-0.1,0.1-0.1,0.1c0,0,0,0.1,0,0.1s0,0.1,0,0.1c0,0,0,0.1,0.1,0.1c0,0,0.1,0.1,0.1,0.1c0,0,0.1,0,0.1,0h0c0.1,0,0.2,0,0.2-0.1
			C47.4,45.6,47.4,45.5,47.4,45.4L47.4,45.4z M47.1,45.7c-0.1,0-0.1,0-0.2-0.1c-0.1-0.1-0.1-0.1-0.1-0.2c0,0,0-0.1,0-0.1
			s0-0.1,0.1-0.1c0,0,0.1,0,0.1-0.1c0,0,0.1,0,0.1,0c0,0,0.1,0,0.1,0c0,0,0.1,0,0.1,0.1s0,0.1,0.1,0.1s0,0.1,0,0.1
			c0,0.1,0,0.1-0.1,0.2C47.3,45.7,47.2,45.7,47.1,45.7L47.1,45.7z M48.7,46.3c0,0,0.1,0,0.1,0c0,0,0,0,0,0c0.1,0,0.1-0.1,0.1-0.1
			c0,0,0-0.1,0-0.1c0,0,0,0,0,0c0-0.1,0-0.1,0-0.1c0,0-0.1-0.1-0.1-0.1c0,0-0.1-0.1-0.1-0.1c0,0-0.1,0-0.1,0c0,0-0.1,0-0.1,0
			c-0.1,0-0.1,0.1-0.1,0.1c0,0-0.1,0.1-0.1,0.2s0,0.1,0,0.2c0,0.1,0.1,0.1,0.1,0.1c0,0,0.1,0,0.1,0c0,0,0,0,0,0
			C48.6,46.3,48.6,46.3,48.7,46.3C48.7,46.3,48.7,46.3,48.7,46.3L48.7,46.3z M48.3,46L48.3,46c0,0,0-0.1,0-0.1c0,0,0-0.1,0.1-0.1
			c0,0,0.1,0,0.1-0.1s0.1,0,0.1,0c0,0,0.1,0,0.1,0c0,0,0.1,0,0.1,0.1c0,0,0,0.1,0.1,0.1c0,0,0,0.1,0,0.1v0c0,0,0,0.1,0,0.1
			s0,0.1-0.1,0.1c0,0-0.1,0-0.1,0.1c0,0-0.1,0-0.1,0c0,0-0.1,0-0.1,0c0,0-0.1,0-0.1-0.1c0,0,0-0.1-0.1-0.1S48.3,46,48.3,46z
			 M45.8,45.8C45.8,45.8,45.8,45.7,45.8,45.8c0-0.1-0.1-0.1-0.1-0.1s-0.1,0-0.1,0c0,0-0.1,0-0.1,0c0,0-0.1,0-0.1,0.1
			s-0.1,0.1-0.1,0.1c0,0,0,0.1,0,0.1c0,0,0,0.1,0.1,0.1c0,0,0.1,0.1,0.1,0.1c0,0,0,0,0.1,0l0,0c0,0,0.1,0.1,0.2,0.1c0,0,0,0,0,0
			c0,0,0.1,0,0.1,0c0,0,0,0,0,0c0.1,0,0.1-0.1,0.1-0.1c0,0,0-0.1,0.1-0.2c0,0,0,0,0,0c0-0.1,0-0.1,0-0.1
			C45.8,45.8,45.8,45.8,45.8,45.8L45.8,45.8z M45.8,46c0,0.1,0,0.1-0.1,0.2c-0.1,0.1-0.1,0.1-0.2,0.1s-0.1,0-0.2-0.1
			c-0.1-0.1-0.1-0.1-0.1-0.2v0c0-0.1,0-0.1,0.1-0.2c0.1-0.1,0.1-0.1,0.2-0.1s0.1,0,0.2,0.1C45.8,45.8,45.8,45.9,45.8,46L45.8,46
			L45.8,46z"/>
		<path d="M47.1,45.2C47.1,45.2,47.1,45.2,47.1,45.2c-0.1,0-0.1,0-0.2,0.1c0,0,0,0-0.1,0.1c0,0,0,0.1,0,0.1c0,0.1,0,0.1,0.1,0.2
			c0,0,0.1,0.1,0.2,0.1h0c0,0,0.1,0,0.1,0c0,0,0.1,0,0.1-0.1c0,0,0,0,0.1-0.1c0,0,0-0.1,0-0.1c0-0.1,0-0.1-0.1-0.2
			C47.3,45.2,47.2,45.2,47.1,45.2L47.1,45.2z M48.6,45.7c0,0-0.1,0-0.1,0c0,0-0.1,0.1-0.1,0.1c0,0,0,0.1,0,0.1c0,0,0,0.1,0.1,0.1
			c0,0,0.1,0.1,0.1,0.1c0,0,0.1,0,0.1,0c0,0,0.1,0,0.1-0.1c0,0,0-0.1,0-0.1v0c0-0.1,0-0.1-0.1-0.2C48.7,45.7,48.7,45.7,48.6,45.7
			L48.6,45.7L48.6,45.7z M45.5,45.7C45.5,45.7,45.5,45.7,45.5,45.7c-0.1,0-0.1,0-0.2,0.1c0,0,0,0-0.1,0.1c0,0,0,0.1,0,0.1v0
			c0,0,0,0.1,0,0.1c0,0,0,0.1,0.1,0.1c0,0,0,0,0.1,0.1c0,0,0.1,0,0.1,0h0c0.1,0,0.1,0,0.2-0.1c0,0,0.1-0.1,0.1-0.2v0
			c0,0,0-0.1,0-0.1c0,0,0-0.1-0.1-0.1C45.7,45.8,45.6,45.7,45.5,45.7C45.6,45.7,45.5,45.7,45.5,45.7L45.5,45.7L45.5,45.7z"/>
		<path class="st1" d="M46.2,48.9v-3.4L46,45.5l-1.5-0.7l1.6,3.9L46.2,48.9L46.2,48.9z M45.9,46c0,0,0,0.1,0,0.1c0,0,0,0.1-0.1,0.1
			c0,0-0.1,0-0.1,0.1c0,0-0.1,0-0.1,0c0,0,0,0,0,0c-0.1,0-0.1,0-0.2-0.1c0,0-0.1,0-0.1,0c0,0-0.1-0.1-0.1-0.1c0,0,0-0.1-0.1-0.1
			c0,0,0-0.1,0-0.1c0,0,0-0.1,0.1-0.1c0,0,0.1-0.1,0.1-0.1c0,0,0.1,0,0.1,0c0,0,0.1,0,0.1,0c0,0,0.1,0,0.1,0.1c0,0,0,0,0,0
			c0,0,0.1,0.1,0.1,0.1C45.9,45.9,45.9,46,45.9,46C45.9,46,45.9,46,45.9,46L45.9,46z M49.8,44.8l-1.1,0.5l-0.6,0.3v3.4l0.6-1.4
			L49.8,44.8L49.8,44.8z M48.5,46.3C48.5,46.3,48.5,46.2,48.5,46.3c-0.2-0.1-0.2-0.1-0.2-0.2c0-0.1,0-0.1,0-0.2
			c0-0.1,0.1-0.1,0.1-0.2c0.1,0,0.1-0.1,0.2-0.1c0.1,0,0.1,0,0.1,0c0,0,0.1,0.1,0.1,0.1c0,0,0.1,0.1,0.1,0.1c0,0,0,0.1,0,0.1
			c0,0,0,0,0,0c0,0.1,0,0.1-0.1,0.2c0,0-0.1,0.1-0.1,0.1c0,0,0,0,0,0c0,0-0.1,0-0.1,0c0,0,0,0,0,0C48.6,46.3,48.6,46.3,48.5,46.3
			C48.6,46.3,48.5,46.3,48.5,46.3L48.5,46.3z M47.9,45.5l-0.8-1l-0.8,1l0.8,0.9L47.9,45.5z M47.1,45.7L47.1,45.7c0,0-0.1,0-0.1,0
			c0,0-0.1,0-0.1-0.1c0,0-0.1-0.1-0.1-0.1c0,0,0-0.1,0-0.1s0-0.1,0-0.1c0,0,0-0.1,0.1-0.1c0,0,0.1-0.1,0.1-0.1c0,0,0.1,0,0.1,0h0
			c0,0,0.1,0,0.1,0c0,0,0.1,0,0.1,0.1c0,0,0.1,0.1,0.1,0.1c0,0,0,0.1,0,0.1v0c0,0.1,0,0.2-0.1,0.2C47.3,45.7,47.2,45.7,47.1,45.7
			L47.1,45.7z"/>
		<path class="st1" d="M52.8,47.9l-1,1.3c0,0.2,0,0.3,0,0.4c0,1-0.3,1.4-0.3,1.4h0l0,0c0,0-0.3-0.1-0.8-0.3l0,0l0,0
			c-0.2-0.1-0.5-0.1-0.7-0.2l-0.3-1.3c-0.1,0-0.1,0-0.2,0c-0.1,0-0.1,0-0.2-0.1c0,0,0,0,0,0l0,0l-0.7,1.2h0l0,0c0,0-0.2,0-0.5,0
			c-0.3,0-0.6,0-0.8,0l0,0h0l0.4-1.2L47.8,49l-0.7-1.7l-0.5,1.2l-0.3,0.7l0.4,1.2c-0.2,0-0.5,0-0.8,0c-0.3,0-0.5,0-0.5,0l0,0l0,0
			l-0.4-0.8l-0.2-0.4c0,0-0.1,0-0.1,0c-0.1,0-0.1,0-0.2,0c0,0,0,0-0.1,0l-0.1,0.4l-0.2,1c-0.3,0.1-0.5,0.1-0.7,0.2
			c-0.4,0.1-0.7,0.3-0.7,0.3c-0.1-0.2-0.2-0.5-0.2-0.8c-0.1-0.4-0.1-0.7-0.1-1.1l-2.1-2.8l0.5,2.8c0,0,0,0,0,0c0,0,0.1,0,0.1,0
			c0.1,0,0.2,0,0.3,0.1c0.1,0,0.2,0.1,0.2,0.2c0.1,0.1,0.2,0.3,0.2,0.4c0,0.2,0,0.3-0.1,0.5c-0.1,0.1-0.1,0.2-0.2,0.2
			c-0.1,0.1-0.2,0.1-0.3,0.1l0.1,0.6l0.3,1.8c0.2-0.1,0.5-0.2,0.7-0.3c1.6-0.5,3.2-0.7,4.8-0.8c1,0,2.1,0.1,3.1,0.3
			c0.6,0.1,1.1,0.2,1.7,0.4c0.4,0.1,0.6,0.2,0.8,0.3l0.1-0.8l0.3-1.6c0,0-0.1,0-0.1,0c-0.1,0-0.2-0.1-0.3-0.2
			c-0.1-0.1-0.2-0.3-0.2-0.5c0-0.2,0.1-0.4,0.2-0.5c0.1-0.1,0.3-0.2,0.5-0.2c0,0,0.1,0,0.1,0c0,0,0,0,0,0l0.5-2.8L52.8,47.9
			L52.8,47.9z M41.5,51l-0.2-0.2l0,0l0.1-0.1l0.1-0.1v0l0,0L41.5,51L41.5,51L41.5,51L41.5,51z M41.2,49.1l-0.2,0l-0.1,0l0,0l0,0
			l0.1-0.2l0.1-0.2l0,0l0,0L41.2,49.1L41.2,49.1L41.2,49.1L41.2,49.1z M41.6,49.3L41.6,49.3L41.6,49.3l-0.1-0.1l-0.1-0.1l0,0l0,0
			l0.3-0.2l0,0L41.6,49.3z M41.7,49.4l0.4,0l0,0h0l-0.3,0.3v0L41.7,49.4L41.7,49.4z M41.7,50.5l0.2-0.3v0l0,0l0.1,0.2l0.1,0.2
			L41.7,50.5L41.7,50.5z M41.9,50.1l0-0.1l0-0.2l0.4,0.2h0l0,0L41.9,50.1L41.9,50.1z M43,51.6C43,51.6,43.1,51.5,43,51.6
			c0-0.1,0-0.2,0.1-0.2c0,0,0.1,0,0.1-0.1c0,0,0.1,0,0.1,0l0,0h0c0,0,0,0,0,0c0.1,0,0.1,0,0.2,0.1s0.1,0.1,0.1,0.2c0,0,0,0.1,0,0.1
			c0,0-0.1,0.1-0.1,0.1c0,0-0.1,0-0.1,0l0,0h0c-0.1,0-0.1,0-0.2-0.1C43.1,51.7,43,51.7,43,51.6L43,51.6z M43.4,52
			C43.4,52,43.4,51.9,43.4,52c-0.1,0-0.1,0-0.1,0h0l0,0h0c0.1,0,0.2,0,0.2-0.1c0.1-0.1,0.1-0.1,0.1-0.2c0,0,0-0.1,0-0.1c0,0,0,0,0,0
			c0,0,0-0.1,0-0.1l0,0l0,0c0,0,0.1,0.1,0.1,0.1s0,0.1,0,0.1c0,0.1,0,0.1-0.1,0.2C43.6,51.9,43.5,52,43.4,52L43.4,52z M45.4,51.2
			c0,0,0-0.1,0-0.1c0,0,0.1-0.1,0.1-0.1c0,0,0.1,0,0.1,0c0,0,0.1,0,0.1,0.1c0,0,0.1,0.1,0.1,0.1c0,0,0,0.1,0,0.1c0,0,0,0.1-0.1,0.1
			c0,0-0.1,0-0.1,0c0,0,0,0,0,0c0,0-0.1,0-0.1,0c0,0-0.1,0-0.1-0.1C45.5,51.3,45.5,51.3,45.4,51.2C45.4,51.3,45.4,51.2,45.4,51.2
			C45.4,51.2,45.4,51.2,45.4,51.2L45.4,51.2z M45.8,51.5C45.8,51.5,45.8,51.5,45.8,51.5C45.7,51.5,45.7,51.5,45.8,51.5
			c-0.1,0-0.1,0-0.1,0h0l0,0h0c0.1,0,0.2,0,0.2-0.1c0.1-0.1,0.1-0.1,0.1-0.2v0c0-0.1,0-0.1,0-0.2c0,0,0,0,0,0l0,0l0,0c0,0,0,0,0,0
			c0,0,0.1,0.1,0.1,0.1c0,0,0,0.1,0,0.1c0,0.1,0,0.1-0.1,0.2C45.9,51.5,45.9,51.5,45.8,51.5L45.8,51.5z M46.9,49
			c0-0.1,0-0.1,0.1-0.2c0,0,0.1-0.1,0.2-0.1c0.1,0,0.1,0,0.2,0.1c0,0,0.1,0.1,0.1,0.2c0,0.1,0,0.1-0.1,0.2c0,0-0.1,0.1-0.2,0.1
			c0,0-0.1,0-0.1,0c0,0-0.1-0.1-0.1-0.1C46.9,49.1,46.9,49.1,46.9,49L46.9,49z M47.4,49.4C47.4,49.4,47.3,49.4,47.4,49.4
			c-0.1,0-0.1,0-0.1,0c0,0-0.1,0-0.1,0c0,0,0,0,0,0l0,0c0,0,0,0,0,0C47.2,49.4,47.3,49.3,47.4,49.4c0-0.1,0.1-0.2,0.1-0.3
			c0-0.1,0-0.1-0.1-0.2c0,0,0,0,0,0l0,0l0,0c0,0,0.1,0.1,0.1,0.1c0,0,0,0.1,0,0.1c0,0.1,0,0.1,0,0.1C47.4,49.3,47.4,49.3,47.4,49.4
			L47.4,49.4z M48.2,51.3C48.2,51.3,48.2,51.2,48.2,51.3c0-0.2,0-0.2,0.1-0.3c0,0,0.1-0.1,0.2-0.1c0.1,0,0.1,0,0.2,0.1
			c0,0,0.1,0.1,0.1,0.2c0,0,0,0.1,0,0.1c0,0-0.1,0.1-0.1,0.1c0,0-0.1,0-0.1,0c0,0-0.1,0-0.1,0C48.2,51.4,48.2,51.3,48.2,51.3
			L48.2,51.3z M48.6,51.5c0,0-0.1,0-0.1,0c0,0,0,0,0,0c0,0,0,0,0,0c0,0,0,0,0,0h0l0,0h0c0,0,0.1,0,0.1,0c0,0,0.1,0,0.1-0.1
			c0,0,0.1-0.1,0.1-0.1c0,0,0-0.1,0-0.1c0,0,0,0,0,0c0,0,0-0.1,0-0.1c0,0,0,0,0-0.1l0,0c0,0,0.1,0.1,0.1,0.1c0,0,0,0.1,0,0.2
			c0,0.1,0,0.1-0.1,0.2C48.7,51.5,48.7,51.5,48.6,51.5L48.6,51.5z M50.5,51.6C50.5,51.6,50.6,51.5,50.5,51.6c0-0.1,0.1-0.2,0.1-0.2
			c0,0,0.1,0,0.1-0.1c0,0,0.1,0,0.1,0l0,0c0,0,0.1,0,0.1,0c0,0,0.1,0,0.1,0.1c0,0,0,0,0.1,0.1c0,0,0,0.1,0,0.1c0,0,0,0,0,0
			c0,0.1,0,0.1-0.1,0.2c0,0-0.1,0.1-0.2,0.1l0,0l0,0c-0.1,0-0.1,0-0.2-0.1C50.6,51.7,50.5,51.7,50.5,51.6L50.5,51.6z M51.1,51.8
			C51.1,51.9,51.1,51.9,51.1,51.8C51,51.9,51,52,50.9,52c0,0,0,0-0.1,0c0,0,0,0-0.1,0h0l0,0h0c0.1,0,0.2,0,0.2-0.1
			c0.1-0.1,0.1-0.1,0.1-0.2c0,0,0-0.1,0-0.1c0,0,0,0,0-0.1l0,0l0,0c0,0,0.1,0.1,0.1,0.1c0,0,0,0.1,0,0.1
			C51.2,51.7,51.2,51.8,51.1,51.8L51.1,51.8z M52.7,50.6L52.7,50.6L52.7,50.6l0.2,0.1l0.1,0l-0.2,0.2L52.7,51l0,0l0,0L52.7,50.6
			L52.7,50.6z M52,50l0.4-0.2v0h0l0,0.3L52,50L52,50L52,50L52,50z M52.6,50.5l-0.4,0.1l0.2-0.3L52.6,50.5z M52.5,49.5l-0.1,0.2l0,0
			l0,0l-0.3-0.3L52.5,49.5L52.5,49.5z M52.7,49.2l-0.1,0.1l0,0l-0.1-0.4l0,0l0,0l0.1,0.1l0.2,0.1L52.7,49.2z M53.3,49.1l-0.3,0
			l0.1-0.3l0,0l0,0l0,0l0,0.1L53.3,49.1L53.3,49.1L53.3,49.1L53.3,49.1z"/>
	</g>
</g>
</svg>
